<svg width="138" height="30" viewBox="0 0 138 30" fill="none" xmlns="http://www.w3.org/2000/svg">
<g id="Group">
<path id="Vector" d="M136.385 10.7537C137.46 11.6236 136.322 12.9996 135.373 12.3038C134.202 11.5604 131.545 11.2125 131.213 12.8573C130.786 15.4512 137.666 13.9645 137.555 18.1716C137.444 22.189 131.624 22.2839 129.441 20.4808C128.919 20.0538 128.935 19.3578 129.22 18.9308C129.631 18.5196 130.09 18.3773 130.628 18.8201C131.925 19.7058 135.262 20.3701 135.499 18.1242C135.293 15.7833 128.714 17.191 129.204 12.6992C129.568 9.6308 134.202 9.07718 136.385 10.7537ZM126.009 11.3706V17.0961C126.009 23.0114 116.471 23.0114 116.471 17.0961V11.3706C116.471 9.94719 118.543 9.88386 118.543 11.3706V17.0961C118.543 20.2119 123.937 20.4017 123.937 17.0961V11.3706C123.937 9.96289 126.009 9.8522 126.009 11.3706ZM60.7011 9.93136C63.4689 10.0736 66.3633 11.9874 66.3633 15.7359C66.3633 19.4844 63.4689 21.4298 60.7011 21.4298C57.7751 21.5564 54.7383 19.6109 54.7383 15.7359C54.7383 11.845 57.7751 9.93136 60.7011 9.93136ZM74.6356 10.3267C78.653 10.3267 79.4754 15.7043 76.1224 17.0486L78.2259 19.6109C79.0484 20.8288 77.4035 21.9991 76.4545 20.7972L74.0663 17.3808H71.5831V20.2435C71.5831 21.6196 69.4795 21.6671 69.4795 20.2752V11.2915C69.4795 10.7379 69.9066 10.3267 70.4285 10.3267H74.6356ZM41.8633 10.1844C42.322 10.1844 42.5909 10.4533 42.8598 10.7537L46.3393 15.4512L49.9455 10.5797C50.4674 9.93137 51.7485 10.1844 51.7485 11.2757V20.1803C51.7485 20.8762 51.3057 21.2716 50.7995 21.2716C50.2301 21.2716 49.7873 20.8762 49.7873 20.1803V14.3283L47.1618 17.6497C46.5923 18.3456 45.8807 18.3456 45.3587 17.6497L43.0021 14.3283V20.1803C43.0021 20.8762 42.4327 21.2716 41.8633 21.2716C41.3572 21.2716 40.9143 20.8762 40.9143 20.1803V11.2757C40.9143 10.4533 41.6102 10.1844 41.8633 10.1844ZM86.1029 10.1844C88.159 10.1844 90.0095 11.5604 90.0095 14.2017C90.0095 16.7007 88.159 18.0925 86.1029 18.0925H83.4615V20.1803C83.4615 20.8762 83.0187 21.2716 82.4493 21.2716C81.9274 21.2716 81.3738 20.8762 81.3738 20.1803V11.2757C81.3738 10.7537 81.785 10.1844 82.4493 10.1844H86.1029ZM101.208 10.3267C101.762 10.3267 102.189 10.7379 102.189 11.3074V20.291C102.189 20.8445 101.762 21.2716 101.208 21.2716C100.639 21.2716 100.132 20.8445 100.132 20.291V16.8272H94.9764V20.291C94.9764 20.8445 94.5651 21.2716 94.0115 21.2716C93.2998 21.2716 92.8886 20.8445 92.8886 20.291V11.3074C92.8886 10.7379 93.2998 10.3267 94.0115 10.3267C94.5651 10.3267 94.9764 10.7379 94.9764 11.3074V14.7554H100.132V11.3074C100.132 10.7379 100.639 10.3267 101.208 10.3267ZM112.217 10.3267C113.672 10.3267 113.64 12.3828 112.217 12.3828H107.662V14.7554H111.647C113.055 14.7554 113.055 16.8272 111.647 16.8272H107.662V19.1996H112.486C113.925 19.1996 114.035 21.2716 112.486 21.2716H106.539C105.985 21.2716 105.558 20.8445 105.558 20.291V11.3074C105.558 10.7379 105.985 10.3267 106.539 10.3267H112.217ZM60.5271 11.9874C58.7557 11.9874 56.8261 13.237 56.8261 15.7359C56.8261 18.2191 58.7557 19.4844 60.5271 19.4844C62.346 19.4844 64.2914 18.2191 64.2914 15.7359C64.2914 13.237 62.346 11.9874 60.5271 11.9874ZM86.1029 12.1773H83.4615V16.1155H86.1029C87.1625 16.1155 88.0009 15.1823 88.0009 14.2017C88.0009 13.0946 87.1625 12.1773 86.1029 12.1773ZM74.6357 12.2404H71.5831V15.5619H74.6357C76.6917 15.5619 76.8183 12.2404 74.6357 12.2404Z" fill="#3DB5E6"/>
<g id="Group_2">
<path id="Vector_2" d="M28.3679 18.63C26.8259 24.825 21.1841 29.2325 14.5392 29.2325C7.86432 29.2325 2.27103 24.5641 0.792236 18.3435C2.57041 18.3435 4.23275 18.3517 5.00449 18.3517C5.36855 18.3517 5.43925 18.358 5.46032 18.3565C6.04101 18.3279 6.76913 18.1362 7.25353 16.9583L9.09941 12.1297L13.1988 21.9998C13.5674 22.7866 14.1827 22.7309 14.5498 22.7309H14.5844C15.3005 22.7309 15.6119 22.48 15.8842 21.961L20.5146 12.2037L22.0942 16.6011L22.1905 16.814C22.5245 17.5466 22.7647 18.2703 23.5912 18.3648C23.7616 18.3843 25.7401 18.3498 28.4074 18.3498C28.4074 18.3498 28.4074 18.3669 28.3679 18.63Z" fill="#3DB5E6"/>
<path id="Vector_3" d="M28.8207 14.9812C28.8207 15.0549 28.8207 15.2403 28.8191 15.2403H28.8161H24.5588L22.075 8.30202C21.8539 7.78602 21.5214 7.01247 20.5526 7.01247C19.9599 7.01247 19.4243 7.50199 19.1204 8.30984L14.6178 18.7392L10.2837 8.3731C9.85947 7.45242 9.56612 7.01943 8.71765 7.01943C8.14147 7.01943 7.71874 7.23167 7.2584 8.32234L4.68592 15.3433L0.411979 15.3389C0.408968 15.232 0.407471 15.1253 0.407471 15.0184C0.407471 7.21373 6.73488 0.906067 14.5396 0.906067C22.3443 0.906067 28.8207 7.17649 28.8207 14.9812Z" fill="#D8292F"/>
</g>
</g>
</svg>
