<svg width="20" height="20" viewBox="0 0 20 20" fill="none" xmlns="http://www.w3.org/2000/svg">
<g id="Frame">
<g id="Group">
<path id="Vector" d="M5 12.5624C5.25 12.3124 5.25 11.9999 5 11.7499C4.75 11.4999 4.4375 11.4999 4.1875 11.7499L3.375 12.5624C3.125 12.8124 3.125 13.1249 3.375 13.3749C3.625 13.6249 3.9375 13.6249 4.1875 13.3749L5 12.5624Z" fill="#4F46BA"/>
<path id="Vector_2" d="M7.4376 12.5624C7.1876 12.3124 6.8751 12.3124 6.6251 12.5624L4.1875 15C3.9375 15.25 3.9375 15.5625 4.1875 15.8125C4.4375 16.0625 4.75 16.0625 5 15.8125L7.375 13.4375C7.625 13.1875 7.625 12.8125 7.4375 12.5625L7.4376 12.5624Z" fill="#4F46BA"/>
<path id="Vector_3" d="M15.8124 2.56235L3.31241 7.18735C2.18741 7.62485 2.18741 9.18734 3.37491 9.56234L6.74991 10.6873C7.37491 10.8748 8.06241 10.7498 8.62491 10.3748L14.4373 5.62484L9.68731 11.4372C9.24981 11.9372 9.12481 12.6247 9.37481 13.3122L10.4998 16.6872C10.8748 17.8122 12.4998 17.8747 12.8748 16.7497L17.4372 4.31215C17.8122 3.18715 16.8122 2.18715 15.8122 2.56215L15.8124 2.56235Z" fill="#4F46BA"/>
<path id="Vector_4" d="M7.43762 15L6.62512 15.8125C6.37512 16.0625 6.37512 16.375 6.62512 16.625C6.87512 16.875 7.18762 16.875 7.43762 16.625L8.25012 15.8125C8.50012 15.5625 8.50012 15.25 8.25012 15C8.00012 14.75 7.62512 14.75 7.43762 15Z" fill="#4F46BA"/>
</g>
</g>
</svg>
