<svg width="37" height="23" viewBox="0 0 37 23" fill="none" xmlns="http://www.w3.org/2000/svg">
<g id="Frame" clip-path="url(#clip0_1_523)">
<path id="Vector" d="M28.18 14.0599C27.1347 14.0017 26.1186 13.6934 25.2172 13.1609C24.3158 12.6285 23.5554 11.8874 23 10.9999C23.67 5.65994 25.62 3.99994 28.2 3.99994C30.78 3.99994 32.74 5.99994 32.74 8.99994C32.74 11.9999 30.74 13.9999 28.2 13.9999L28.18 14.0599ZM28.2 0.65994C26.3792 0.58616 24.5905 1.15465 23.1464 2.26604C21.7023 3.37743 20.6948 4.961 20.3 6.73994C19.444 4.94652 18.7964 3.06087 18.37 1.11994H12V9.01994C12 11.8899 10.7 14.0199 8.14996 14.0199C5.59996 14.0199 4.14996 11.8999 4.14996 9.01994V1.11994H0.489961V9.01994C0.406897 11.2091 1.16146 13.3476 2.59996 14.9999C3.3021 15.7644 4.15981 16.3697 5.11539 16.7751C6.07098 17.1804 7.10229 17.3764 8.13996 17.3499C12.55 17.3499 15.64 13.9599 15.64 9.10994V3.76994C16.3889 6.64344 17.627 9.36655 19.3 11.8199L17.34 22.9999H21.06L22.35 15.0799C22.777 15.4476 23.2317 15.7819 23.71 16.0799C24.9527 16.8648 26.3811 17.3065 27.85 17.3599H28.19C29.2826 17.3713 30.3663 17.1615 31.3757 16.743C32.3851 16.3246 33.2995 15.7063 34.0637 14.9253C34.8279 14.1442 35.4262 13.2167 35.8225 12.1984C36.2189 11.1801 36.4051 10.0921 36.37 8.99994C36.3955 7.91181 36.202 6.82965 35.8009 5.81779C35.3999 4.80594 34.7995 3.88503 34.0355 3.10982C33.2715 2.33461 32.3594 1.72091 31.3535 1.3052C30.3476 0.88949 29.2684 0.680258 28.18 0.68994" fill="#27AE60"/>
</g>
<defs>
<clipPath id="clip0_1_523">
<rect width="37" height="23" fill="white"/>
</clipPath>
</defs>
</svg>
